<svg width="33" height="38" viewBox="0 0 33 38" fill="none" xmlns="http://www.w3.org/2000/svg">
<path d="M31.4742 23.3225L18.0307 36.76C17.5098 37.2891 16.8208 37.5494 16.1318 37.5494C15.4428 37.5494 14.7555 37.287 14.2312 36.7621L0.787707 23.3246C-0.262569 22.2748 -0.262569 20.5741 0.787707 19.5243C1.83798 18.4745 3.53943 18.4745 4.5897 19.5243L13.4431 28.3783V2.61191C13.4431 1.12623 14.6471 0 16.0562 0C17.4652 0 18.8205 1.12623 18.8205 2.61191V28.3783L27.6764 19.5264C28.7267 18.4766 30.4282 18.4766 31.4784 19.5264C32.5287 20.5762 32.5245 22.2727 31.4742 23.3225Z" fill="#FF752E"/>
</svg>
